{
  "source": "C:\\Users\\Peter\\Desktop\\stuff\\MIUN\\quantitative_research\\video_compression\\videos\\BVI-HD\\BVI-HD_CDVL_videos\\ORIG\\Toys_1920x1080_30fps.mp4",
  "output": "C:\\Users\\Peter\\Desktop\\stuff\\MIUN\\quantitative_research\\video_compression\\compressed_videos\\BVI-HD\\vp9\\3\\Toys_1920x1080_30fps_vp9.webm",
  "codec": "vp9",
  "ok": "Input #0, mov,mp4,m4a,3gp,3g2,mj2, from 'C:\\Users\\Peter\\Desktop\\stuff\\MIUN\\quantitative_research\\video_compression\\videos\\BVI-HD\\BVI-HD_CDVL_videos\\ORIG\\Toys_1920x1080_30fps.mp4':\n  Metadata:\n    major_brand     : isom\n    minor_version   : 512\n    compatible_brands: isomiso2avc1mp41\n    encoder         : Lavf54.28.101\n  Duration: 00:00:05.00, start: 0.000000, bitrate: 270887 kb/s\n  Stream #0:0[0x1](und): Video: h264 (High 4:4:4 Predictive) (avc1 / 0x31637661), yuv420p(progressive), 1920x1080, 270883 kb/s, 30 fps, 30 tbr, 30 tbn (default)\n    Metadata:\n      handler_name    : VideoHandler\n      vendor_id       : [0][0][0][0]\n[out#0/webm @ 0000027c08449280] Codec AVOption b:a (set bitrate (in bits/s)) has not been used for any stream. The most likely reason is either wrong type (e.g. a video option with no video streams) or that it is a private option of some decoder which was not actually used for any stream.\nStream mapping:\n  Stream #0:0 -> #0:0 (h264 (native) -> vp9 (libvpx-vp9))\nPress [q] to stop, [?] for help\n[libvpx-vp9 @ 0000027c0a5f00c0] v1.15.2-100-g40561f514\nOutput #0, webm, to 'C:\\Users\\Peter\\Desktop\\stuff\\MIUN\\quantitative_research\\video_compression\\compressed_videos\\BVI-HD\\vp9\\3\\Toys_1920x1080_30fps_vp9.webm':\n  Metadata:\n    major_brand     : isom\n    minor_version   : 512\n    compatible_brands: isomiso2avc1mp41\n    encoder         : Lavf62.3.100\n  Stream #0:0(und): Video: vp9, yuv420p(tv, progressive), 1920x1080, q=2-31, 3000 kb/s, 30 fps, 1k tbn (default)\n    Metadata:\n      encoder         : Lavc62.11.100 libvpx-vp9\n      handler_name    : VideoHandler\n      vendor_id       : [0][0][0][0]\n    Side data:\n      cpb: bitrate max/min/avg: 0/0/0 buffer size: 3000000 vbv_delay: N/A\nframe=    0 fps=0.0 q=0.0 size=       0KiB time=N/A bitrate=N/A speed=N/A elapsed=0:00:00.52    \nframe=    0 fps=0.0 q=0.0 size=       0KiB time=N/A bitrate=N/A speed=N/A elapsed=0:00:01.12    \nframe=    2 fps=1.2 q=31.0 size=       1KiB time=00:00:00.03 bitrate= 152.2kbits/s speed=0.0193x elapsed=0:00:01.72    \nframe=    5 fps=2.1 q=50.0 size=       1KiB time=00:00:00.16 bitrate=  30.4kbits/s speed=0.0716x elapsed=0:00:02.32    \nframe=    7 fps=2.4 q=49.0 size=       1KiB time=00:00:00.23 bitrate=  21.7kbits/s speed=0.0797x elapsed=0:00:02.92    \nframe=   10 fps=2.8 q=48.0 size=       1KiB time=00:00:00.30 bitrate=  16.9kbits/s speed=0.0854x elapsed=0:00:03.51    \nframe=   12 fps=2.9 q=49.0 size=       1KiB time=00:00:00.40 bitrate=  12.7kbits/s speed=0.0966x elapsed=0:00:04.13    \nframe=   15 fps=3.2 q=47.0 size=       1KiB time=00:00:00.50 bitrate=  10.1kbits/s speed=0.106x elapsed=0:00:04.70    \nframe=   18 fps=3.4 q=47.0 size=       1KiB time=00:00:00.60 bitrate=   8.5kbits/s speed=0.115x elapsed=0:00:05.22    \nframe=   21 fps=3.6 q=34.0 size=       1KiB time=00:00:00.70 bitrate=   7.2kbits/s speed=0.122x elapsed=0:00:05.75    \nframe=   24 fps=3.8 q=45.0 size=       1KiB time=00:00:00.80 bitrate=   6.3kbits/s speed=0.126x elapsed=0:00:06.34    \nframe=   27 fps=3.9 q=46.0 size=       1KiB time=00:00:00.90 bitrate=   5.6kbits/s speed=0.131x elapsed=0:00:06.87    \nframe=   29 fps=3.9 q=47.0 size=       1KiB time=00:00:00.96 bitrate=   5.2kbits/s speed=0.131x elapsed=0:00:07.39    \nframe=   32 fps=4.0 q=47.0 size=       1KiB time=00:00:01.06 bitrate=   4.8kbits/s speed=0.135x elapsed=0:00:07.90    \nframe=   34 fps=4.0 q=45.0 size=       1KiB time=00:00:01.13 bitrate=   4.5kbits/s speed=0.134x elapsed=0:00:08.44    \nframe=   37 fps=4.1 q=46.0 size=       1KiB time=00:00:01.23 bitrate=   4.1kbits/s speed=0.137x elapsed=0:00:09.01    \nframe=   40 fps=4.2 q=47.0 size=       1KiB time=00:00:01.30 bitrate=   3.9kbits/s speed=0.136x elapsed=0:00:09.58    \nframe=   42 fps=4.1 q=45.0 size=       1KiB time=00:00:01.40 bitrate=   3.6kbits/s speed=0.138x elapsed=0:00:10.15    \nframe=   45 fps=4.2 q=44.0 size=       1KiB time=00:00:01.50 bitrate=   3.4kbits/s speed=0.14x elapsed=0:00:10.72    \nframe=   46 fps=4.1 q=45.0 size=       1KiB time=00:00:01.53 bitrate=   3.3kbits/s speed=0.136x elapsed=0:00:11.24    \nframe=   49 fps=4.2 q=43.0 size=       1KiB time=00:00:01.63 bitrate=   3.1kbits/s speed=0.138x elapsed=0:00:11.80    \nframe=   51 fps=4.1 q=44.0 size=       1KiB time=00:00:01.70 bitrate=   3.0kbits/s speed=0.137x elapsed=0:00:12.37    \nframe=   54 fps=4.2 q=45.0 size=       1KiB time=00:00:01.80 bitrate=   2.8kbits/s speed=0.139x elapsed=0:00:12.90    \nframe=   57 fps=4.2 q=44.0 size=       1KiB time=00:00:01.90 bitrate=   2.7kbits/s speed=0.142x elapsed=0:00:13.42    \nframe=   58 fps=4.2 q=44.0 size=       1KiB time=00:00:01.93 bitrate=   2.6kbits/s speed=0.138x elapsed=0:00:13.96    \nframe=   62 fps=4.3 q=44.0 size=       1KiB time=00:00:02.03 bitrate=   2.5kbits/s speed=0.14x elapsed=0:00:14.51    \nframe=   64 fps=4.2 q=44.0 size=       1KiB time=00:00:02.13 bitrate=   2.4kbits/s speed=0.141x elapsed=0:00:15.10    \nframe=   67 fps=4.3 q=43.0 size=       1KiB time=00:00:02.23 bitrate=   2.3kbits/s speed=0.143x elapsed=0:00:15.65    \nframe=   70 fps=4.3 q=44.0 size=       1KiB time=00:00:02.33 bitrate=   2.2kbits/s speed=0.143x elapsed=0:00:16.28    \nframe=   72 fps=4.3 q=44.0 size=       1KiB time=00:00:02.40 bitrate=   2.1kbits/s speed=0.142x elapsed=0:00:16.86    \nframe=   74 fps=4.3 q=44.0 size=       1KiB time=00:00:02.46 bitrate=   2.1kbits/s speed=0.142x elapsed=0:00:17.37    \nframe=   76 fps=4.2 q=44.0 size=       1KiB time=00:00:02.53 bitrate=   2.0kbits/s speed=0.142x elapsed=0:00:17.90    \nframe=   80 fps=4.3 q=43.0 size=       1KiB time=00:00:02.66 bitrate=   1.9kbits/s speed=0.145x elapsed=0:00:18.43    \nframe=   83 fps=4.4 q=35.0 size=       1KiB time=00:00:02.76 bitrate=   1.8kbits/s speed=0.146x elapsed=0:00:18.98    \nframe=   85 fps=4.4 q=43.0 size=       1KiB time=00:00:02.83 bitrate=   1.8kbits/s speed=0.145x elapsed=0:00:19.53    \nframe=   88 fps=4.4 q=44.0 size=       1KiB time=00:00:02.93 bitrate=   1.7kbits/s speed=0.146x elapsed=0:00:20.08    \nframe=   91 fps=4.4 q=43.0 size=       1KiB time=00:00:03.03 bitrate=   1.7kbits/s speed=0.147x elapsed=0:00:20.62    \nframe=   94 fps=4.4 q=44.0 size=       1KiB time=00:00:03.13 bitrate=   1.6kbits/s speed=0.148x elapsed=0:00:21.14    \nframe=   97 fps=4.5 q=42.0 size=       1KiB time=00:00:03.23 bitrate=   1.6kbits/s speed=0.149x elapsed=0:00:21.70    \nframe=  100 fps=4.5 q=44.0 size=       1KiB time=00:00:03.33 bitrate=   1.5kbits/s speed=0.15x elapsed=0:00:22.23    \nframe=  102 fps=4.5 q=44.0 size=       1KiB time=00:00:03.40 bitrate=   1.5kbits/s speed=0.149x elapsed=0:00:22.76    \nframe=  105 fps=4.5 q=43.0 size=       1KiB time=00:00:03.50 bitrate=   1.4kbits/s speed=0.15x elapsed=0:00:23.29    \nframe=  108 fps=4.5 q=44.0 size=       1KiB time=00:00:03.60 bitrate=   1.4kbits/s speed=0.151x elapsed=0:00:23.81    \nframe=  111 fps=4.6 q=44.0 size=       1KiB time=00:00:03.70 bitrate=   1.4kbits/s speed=0.152x elapsed=0:00:24.35    \nframe=  113 fps=4.5 q=34.0 size=       1KiB time=00:00:03.76 bitrate=   1.3kbits/s speed=0.151x elapsed=0:00:24.91    \nframe=  116 fps=4.6 q=43.0 size=       1KiB time=00:00:03.86 bitrate=   1.3kbits/s speed=0.152x elapsed=0:00:25.45    \nframe=  119 fps=4.6 q=35.0 size=       1KiB time=00:00:03.96 bitrate=   1.3kbits/s speed=0.153x elapsed=0:00:25.99    \nframe=  122 fps=4.6 q=44.0 size=       1KiB time=00:00:04.06 bitrate=   1.2kbits/s speed=0.153x elapsed=0:00:26.50    \nframe=  125 fps=4.6 q=44.0 size=       1KiB time=00:00:04.16 bitrate=   1.2kbits/s speed=0.154x elapsed=0:00:27.04    \nframe=  126 fps=4.6 q=43.0 size=       1KiB time=00:00:04.20 bitrate=   1.2kbits/s speed=0.152x elapsed=0:00:27.58    \nframe=  126 fps=4.5 q=43.0 size=       1KiB time=00:00:04.20 bitrate=   1.2kbits/s speed=0.149x elapsed=0:00:28.14    \nframe=  126 fps=4.4 q=43.0 size=       1KiB time=00:00:04.20 bitrate=   1.2kbits/s speed=0.146x elapsed=0:00:28.69    \nframe=  126 fps=4.3 q=43.0 size=       1KiB time=00:00:04.20 bitrate=   1.2kbits/s speed=0.144x elapsed=0:00:29.22    \nframe=  126 fps=4.2 q=43.0 size=       1KiB time=00:00:04.20 bitrate=   1.2kbits/s speed=0.141x elapsed=0:00:29.74    \nframe=  126 fps=4.2 q=43.0 size=       1KiB time=00:00:04.20 bitrate=   1.2kbits/s speed=0.139x elapsed=0:00:30.26    \nframe=  126 fps=4.1 q=43.0 size=       1KiB time=00:00:04.20 bitrate=   1.2kbits/s speed=0.136x elapsed=0:00:30.88    \n[out#0/webm @ 0000027c08449280] video:1998KiB audio:0KiB subtitle:0KiB other streams:0KiB global headers:0KiB muxing overhead: 0.086515%\nframe=  150 fps=4.8 q=43.0 Lsize=    2000KiB time=00:00:05.00 bitrate=3276.3kbits/s speed=0.161x elapsed=0:00:31.12    \n",
  "seconds": 31.493011713027954,
  "probe_out": {}
}